<svg width="6" height="7" viewBox="0 0 6 7" fill="none" xmlns="http://www.w3.org/2000/svg">
<g clip-path="url(#clip0_286_241)">
<path d="M1.25772 7.00046C1.09106 6.95051 0.949562 6.8636 0.856231 6.70707C0.80348 6.61693 0.772135 6.51531 0.764734 6.41043C0.735068 6.05476 0.709402 5.69876 0.681403 5.34309C0.64807 4.93543 0.612738 4.52776 0.579739 4.12009C0.555073 3.81643 0.533074 3.5126 0.508741 3.20895C0.478575 2.8307 0.446409 2.45246 0.41691 2.07404C0.413577 2.02939 0.384411 2.01947 0.354579 2.00562C0.172417 1.91512 0.0582535 1.76936 0.0137547 1.56784C-0.0667431 1.20277 0.212083 0.830167 0.575906 0.823495C0.89073 0.817849 1.20572 0.820415 1.52071 0.823495C1.58104 0.823495 1.60404 0.807585 1.60004 0.743261C1.59171 0.594256 1.60004 0.447303 1.67838 0.314037C1.79004 0.125856 1.9512 0.00884106 2.16603 0.00610388C2.72251 -0.000910146 3.27933 0.000116297 3.83598 0.00610388C4.13297 0.00884106 4.3918 0.281875 4.40163 0.587755C4.40447 0.642346 4.40447 0.697053 4.40163 0.751644C4.39747 0.809467 4.41997 0.825206 4.4743 0.824863C4.78479 0.82281 5.09528 0.822126 5.40577 0.824863C5.54138 0.826976 5.67232 0.875989 5.77742 0.963973C5.88251 1.05196 5.95562 1.17377 5.9849 1.30969C6.01418 1.44562 5.99793 1.58771 5.93878 1.71298C5.87962 1.83825 5.78102 1.93936 5.65893 1.99997C5.60493 2.02631 5.5871 2.05694 5.5826 2.11733C5.5516 2.5279 5.51494 2.93728 5.48177 3.34735C5.45277 3.70523 5.42694 4.06346 5.39844 4.42135C5.36511 4.83193 5.32977 5.24131 5.29627 5.65137C5.27628 5.89601 5.25528 6.14064 5.24044 6.38562C5.22261 6.67781 5.05961 6.89884 4.78796 6.9866C4.77312 6.99139 4.75879 6.99738 4.74429 7.00285L1.25772 7.00046ZM3.00384 2.06053C2.30752 2.06053 1.61121 2.06053 0.914896 2.05916C0.849565 2.05916 0.828565 2.07935 0.835399 2.1447C0.847898 2.26684 0.855231 2.38933 0.865398 2.51165C0.895064 2.86954 0.925396 3.22742 0.954395 3.58531C0.978728 3.88657 1.00056 4.188 1.02489 4.48927C1.05373 4.84493 1.08456 5.20042 1.11389 5.55591C1.13706 5.83904 1.15839 6.12234 1.18272 6.40546C1.18956 6.48484 1.23539 6.5401 1.30689 6.56867C1.35038 6.58578 1.39772 6.58578 1.44472 6.58578C2.48258 6.58578 3.52032 6.58578 4.55796 6.58578C4.58237 6.58652 4.60681 6.58572 4.63113 6.58338C4.74979 6.56833 4.81195 6.50007 4.82162 6.37809C4.83973 6.14703 4.85823 5.91596 4.87712 5.6849C4.91045 5.27723 4.94595 4.86956 4.97895 4.46189C5.00795 4.10264 5.03412 3.74133 5.06328 3.38105C5.09661 2.97338 5.13161 2.56588 5.16495 2.15821C5.17278 2.06207 5.17044 2.06104 5.07278 2.06104L3.00384 2.06053ZM3.00384 1.24109C2.22786 1.24109 1.45194 1.24109 0.67607 1.24109C0.633944 1.23943 0.591802 1.24393 0.550906 1.25443C0.505918 1.26802 0.467482 1.29834 0.443105 1.33947C0.418728 1.38059 0.410161 1.42957 0.419077 1.47683C0.44041 1.58734 0.518074 1.64123 0.659903 1.64123C2.22053 1.64123 3.78115 1.64123 5.34177 1.64123C5.37496 1.64129 5.40805 1.63756 5.44044 1.63011C5.48183 1.62037 5.51884 1.59665 5.54553 1.56274C5.57221 1.52884 5.58703 1.48671 5.5876 1.44312C5.58729 1.39956 5.57301 1.35731 5.54694 1.32292C5.52088 1.28853 5.4845 1.26391 5.44344 1.25289C5.40454 1.24378 5.36465 1.23993 5.32477 1.24143L3.00384 1.24109ZM2.99751 0.821613C3.28566 0.821613 3.57382 0.821613 3.86198 0.821613C4.01198 0.821613 3.99348 0.8418 3.99398 0.689031C3.99398 0.49298 3.92448 0.421984 3.73265 0.421813H2.31652C2.05836 0.421813 2.0082 0.476215 2.0067 0.743432C2.0067 0.808269 2.0272 0.823666 2.08686 0.823153C2.39002 0.820244 2.69368 0.821613 2.99751 0.821613Z" fill="#65666B"/>
<path d="M1.59996 2.73114C1.60129 2.6947 1.59429 2.65125 1.60695 2.60882C1.62043 2.5626 1.64911 2.5226 1.6881 2.49565C1.72709 2.4687 1.77398 2.45646 1.82078 2.46102C1.86664 2.46388 1.9101 2.483 1.94375 2.51511C1.9774 2.54722 1.99915 2.59032 2.00528 2.63705C2.01744 2.74757 2.02444 2.85945 2.03094 2.97013C2.05494 3.37866 2.07728 3.78718 2.10127 4.19571C2.12727 4.6381 2.15388 5.08056 2.18111 5.52307C2.18977 5.66831 2.20144 5.81389 2.2061 5.95879C2.2101 6.08812 2.12944 6.17931 2.01544 6.18444C1.89728 6.18991 1.80962 6.11259 1.79878 5.98445C1.78312 5.79422 1.77212 5.60347 1.76028 5.41307C1.73428 4.99565 1.70862 4.57817 1.68329 4.16064C1.66973 3.93824 1.6564 3.71584 1.64329 3.49345C1.62895 3.24163 1.61479 2.98963 1.59996 2.73114Z" fill="#65666B"/>
<path d="M4.40255 2.75084C4.38155 3.08306 4.35938 3.42778 4.33821 3.77266C4.32338 4.01097 4.31022 4.24927 4.29572 4.48758C4.27461 4.83691 4.25322 5.1863 4.23155 5.53575C4.22222 5.68544 4.21488 5.83547 4.20288 5.98482C4.19205 6.11295 4.10489 6.1901 3.98622 6.18463C3.87456 6.1795 3.79073 6.08934 3.79606 5.96531C3.80806 5.68835 3.8254 5.41155 3.8414 5.13458C3.85173 4.95529 3.86406 4.77618 3.87473 4.59689C3.89639 4.24984 3.91784 3.90273 3.93906 3.55557C3.95373 3.31281 3.96722 3.06989 3.98156 2.82714C3.98506 2.76811 3.98806 2.70892 3.99456 2.65024C3.9966 2.6229 4.00395 2.59626 4.01615 2.57187C4.02835 2.54747 4.04518 2.52583 4.06563 2.50819C4.08609 2.49056 4.10977 2.47729 4.13528 2.46916C4.16079 2.46103 4.18763 2.45821 4.21422 2.46087C4.32038 2.4672 4.39938 2.55496 4.40205 2.66975C4.40305 2.6925 4.40255 2.71525 4.40255 2.75084Z" fill="#65666B"/>
<path d="M3.20525 4.32252C3.20525 4.86882 3.20525 5.41506 3.20525 5.96124C3.20525 6.09057 3.12559 6.18056 3.01126 6.18466C2.88293 6.18928 2.79726 6.09913 2.7971 5.95474C2.7971 5.19688 2.7971 4.43897 2.7971 3.681C2.7971 3.34415 2.7971 3.00731 2.7971 2.67046C2.796 2.62107 2.81222 2.57291 2.84281 2.53476C2.8734 2.49661 2.91632 2.471 2.96376 2.46261C3.01228 2.45376 3.06229 2.46307 3.10471 2.48884C3.14712 2.51461 3.17913 2.55514 3.19492 2.60306C3.20404 2.63829 3.20725 2.67485 3.20442 2.71118C3.2052 3.24835 3.20547 3.78547 3.20525 4.32252Z" fill="#65666B"/>
</g>
<defs>
<clipPath id="clip0_286_241">
<rect width="6" height="7" fill="white"/>
</clipPath>
</defs>
</svg>
