<svg width="8" height="7" viewBox="0 0 8 7" fill="none" xmlns="http://www.w3.org/2000/svg">
<path d="M7.95881 5.519L6.63816 6.90466C6.60946 6.93476 6.57472 6.95876 6.53612 6.97517C6.49752 6.99157 6.45588 7.00002 6.41381 7H0.153317C0.123445 7 0.0942234 6.99146 0.0692437 6.97544C0.0442637 6.95941 0.0246131 6.93659 0.0127062 6.90979C0.00079939 6.88299 -0.002845 6.85337 0.00222085 6.82456C0.00728669 6.79576 0.0208421 6.76903 0.0412215 6.74767L1.36286 5.362C1.39149 5.33198 1.42611 5.30803 1.46459 5.29163C1.50307 5.27523 1.54457 5.26674 1.58654 5.26666H7.84668C7.87655 5.26666 7.90577 5.27521 7.93077 5.29123C7.95572 5.30726 7.97537 5.33008 7.98733 5.35688C7.99921 5.38368 8.00285 5.4133 7.99778 5.4421C7.99271 5.47091 7.97917 5.49763 7.95881 5.519ZM6.63816 2.72866C6.60946 2.69856 6.57472 2.67456 6.53612 2.65816C6.49752 2.64177 6.45588 2.63331 6.41381 2.63334H0.153317C0.123445 2.63334 0.0942234 2.64187 0.0692437 2.6579C0.0442637 2.67393 0.0246131 2.69674 0.0127062 2.72354C0.00079939 2.75035 -0.002845 2.77997 0.00222085 2.80877C0.00728669 2.83757 0.0208421 2.8643 0.0412215 2.88567L1.36286 4.27134C1.39149 4.30136 1.42611 4.3253 1.46459 4.3417C1.50307 4.3581 1.54457 4.3666 1.58654 4.36666H7.84668C7.87655 4.36666 7.90577 4.35813 7.93077 4.3421C7.95572 4.32607 7.97537 4.30326 7.98733 4.27646C7.99921 4.24965 8.00285 4.22003 7.99778 4.19123C7.99271 4.16243 7.97917 4.1357 7.95881 4.11433L6.63816 2.72866ZM0.153317 1.73334H6.41381C6.45588 1.73335 6.49752 1.7249 6.53612 1.7085C6.57472 1.6921 6.60946 1.6681 6.63816 1.638L7.95881 0.252333C7.97917 0.230966 7.99271 0.204239 7.99778 0.175437C8.00285 0.146636 7.99921 0.117014 7.98733 0.0902109C7.97537 0.0634081 7.95572 0.0405917 7.93077 0.0245655C7.90577 0.00853912 7.87655 9.86952e-07 7.84668 0H1.58654C1.54457 6.98725e-05 1.50307 0.00856697 1.46459 0.0249652C1.42611 0.0413635 1.39149 0.0653137 1.36286 0.0953336L0.0415622 1.481C0.0212025 1.50234 0.00765305 1.52905 0.00257572 1.55781C-0.00250162 1.58658 0.00111385 1.61618 0.0129787 1.64297C0.0248436 1.66976 0.0444421 1.69258 0.0693706 1.70863C0.0942994 1.72468 0.123474 1.73326 0.153317 1.73334Z" fill="url(#paint0_linear_18_161)"/>
<defs>
<linearGradient id="paint0_linear_18_161" x1="0.675294" y1="7.16683" x2="7.08002" y2="-0.212979" gradientUnits="userSpaceOnUse">
<stop offset="0.08" stop-color="#9945FF"/>
<stop offset="0.3" stop-color="#8752F3"/>
<stop offset="0.5" stop-color="#5497D5"/>
<stop offset="0.6" stop-color="#43B4CA"/>
<stop offset="0.72" stop-color="#28E0B9"/>
<stop offset="0.97" stop-color="#19FB9B"/>
</linearGradient>
</defs>
</svg>
